<svg width="3091" height="1040" viewBox="0 0 3091 1040" fill="none" xmlns="http://www.w3.org/2000/svg">
<path fill-rule="evenodd" clip-rule="evenodd" d="M121 275C121 123.122 244.122 0 396 0H409C560.878 0 684 123.122 684 275V369H763C786.196 369 805 387.804 805 411V998C805 1021.2 786.196 1040 763 1040H42C18.804 1040 0 1021.2 0 998V411C0 387.804 18.804 369 42 369H121V275ZM592 369H213V283.5C213 178.842 297.842 94 402.5 94C507.158 94 592 178.842 592 283.5V369Z" fill="#027E6A"/>
<path d="M450.51 803.968V784.447H413.637V673.828H587.88V915.31C530.522 937 471.236 947.845 410.022 947.845C327.6 947.845 270.965 927.842 240.117 887.836C224.211 867.11 213.125 842.769 206.859 814.813C200.593 786.857 197.46 752.394 197.46 711.424C197.46 669.972 200.593 635.509 206.859 608.035C213.607 580.079 225.416 555.738 242.286 535.012C274.098 494.524 335.553 474.28 426.651 474.28C445.449 474.28 469.79 476.208 499.674 480.064C530.04 483.92 552.212 488.258 566.19 493.078L544.5 603.697C505.458 596.949 470.031 593.575 438.219 593.575C406.889 593.575 384.717 595.985 371.703 600.805C359.171 605.625 352.905 615.265 352.905 629.725V834.334H400.623C417.975 834.334 430.507 832.647 438.219 829.273C446.413 825.417 450.51 816.982 450.51 803.968Z" fill="white"/>
<path d="M1006.91 485.125V824.212H1058.24C1076.55 824.212 1089.09 822.043 1095.83 817.705C1102.58 812.885 1105.96 802.281 1105.96 785.893V485.125H1250.56V738.898C1250.56 779.868 1247.91 812.885 1242.6 837.949C1237.3 863.013 1227.42 884.221 1212.96 901.573C1198.5 918.925 1178.74 930.975 1153.67 937.723C1128.61 944.471 1096.08 947.845 1056.07 947.845C1016.06 947.845 983.528 944.471 958.464 937.723C933.882 930.975 914.361 918.925 899.901 901.573C885.441 884.221 875.56 863.013 870.258 837.949C864.956 812.885 862.305 779.868 862.305 738.898V485.125H1006.91ZM1420.04 937H1267.49L1384.62 485.125H1608.02L1725.15 937H1572.6L1555.97 865.423H1436.67L1420.04 937ZM1492.34 623.941L1462.7 750.466H1529.22L1500.3 623.941H1492.34ZM2146.93 937H1987.87L1928.58 802.522H1897.49V937H1752.89V485.125H1980.64C2084.27 485.125 2136.08 537.904 2136.08 643.462C2136.08 715.762 2113.67 763.48 2068.85 786.616L2146.93 937ZM1897.49 600.805V691.18H1930.75C1948.1 691.18 1960.64 689.493 1968.35 686.119C1976.54 682.263 1980.64 673.828 1980.64 660.814V631.171C1980.64 618.157 1976.54 609.963 1968.35 606.589C1960.64 602.733 1948.1 600.805 1930.75 600.805H1897.49ZM2197.71 937V485.125H2400.15C2481.61 485.125 2537.52 502.477 2567.88 537.181C2598.25 571.885 2613.43 629.966 2613.43 711.424C2613.43 792.4 2598.25 850.24 2567.88 884.944C2537.52 919.648 2481.61 937 2400.15 937H2197.71ZM2402.32 600.805H2342.31V821.32H2402.32C2422.08 821.32 2436.3 819.151 2444.97 814.813C2454.13 809.993 2458.71 799.389 2458.71 783.001V639.124C2458.71 622.736 2454.13 612.373 2444.97 608.035C2436.3 603.215 2422.08 600.805 2402.32 600.805Z" fill="white"/>
<rect x="2857.84" y="431.738" width="224.806" height="526.287" rx="112.403" transform="rotate(18.6267 2857.84 431.738)" fill="white" stroke="#027E6A" stroke-width="28"/>
<path d="M3036.8 611.902L2984.77 766.262L2769.53 693.715L2821.56 539.356C2841.6 479.92 2906.02 447.978 2965.45 468.011C3024.89 488.045 3056.83 552.467 3036.8 611.902Z" fill="#027E6A" stroke="#027E6A" stroke-width="28"/>
</svg>
